<svg width="52" height="16" viewBox="0 0 52 16" fill="none" xmlns="http://www.w3.org/2000/svg">
<rect opacity="0.4" width="16" height="16" rx="2" fill="white"/>
<path opacity="0.5" d="M48.3846 11.196C47.7454 11.196 47.1914 11.0554 46.7227 10.7741C46.2539 10.4929 45.8903 10.0994 45.6318 9.59375C45.3761 9.08807 45.2482 8.49716 45.2482 7.82102C45.2482 7.14489 45.3761 6.55256 45.6318 6.04403C45.8903 5.53551 46.2539 5.14062 46.7227 4.85938C47.1914 4.57812 47.7454 4.4375 48.3846 4.4375C49.0238 4.4375 49.5778 4.57812 50.0465 4.85938C50.5153 5.14062 50.8775 5.53551 51.1332 6.04403C51.3917 6.55256 51.521 7.14489 51.521 7.82102C51.521 8.49716 51.3917 9.08807 51.1332 9.59375C50.8775 10.0994 50.5153 10.4929 50.0465 10.7741C49.5778 11.0554 49.0238 11.196 48.3846 11.196ZM48.3931 9.96023C48.7397 9.96023 49.0295 9.86506 49.2624 9.67472C49.4954 9.48153 49.6687 9.22301 49.7823 8.89915C49.8988 8.57528 49.957 8.21449 49.957 7.81676C49.957 7.41619 49.8988 7.05398 49.7823 6.73011C49.6687 6.40341 49.4954 6.14347 49.2624 5.95028C49.0295 5.7571 48.7397 5.66051 48.3931 5.66051C48.038 5.66051 47.7425 5.7571 47.5068 5.95028C47.2738 6.14347 47.0991 6.40341 46.9826 6.73011C46.869 7.05398 46.8122 7.41619 46.8122 7.81676C46.8122 8.21449 46.869 8.57528 46.9826 8.89915C47.0991 9.22301 47.2738 9.48153 47.5068 9.67472C47.7425 9.86506 48.038 9.96023 48.3931 9.96023Z" fill="white"/>
<path opacity="0.5" d="M40.8761 13.6591C40.3221 13.6591 39.8462 13.5838 39.4485 13.4332C39.0508 13.2855 38.7312 13.0866 38.4897 12.8366C38.2482 12.5866 38.0806 12.3097 37.9869 12.0057L39.3761 11.669C39.4386 11.7969 39.5295 11.9233 39.6488 12.0483C39.7681 12.1761 39.9286 12.2813 40.1303 12.3636C40.3349 12.4489 40.592 12.4915 40.9016 12.4915C41.3391 12.4915 41.7014 12.3849 41.9883 12.1719C42.2752 11.9616 42.4187 11.6151 42.4187 11.1321V9.89205H42.342C42.2624 10.0511 42.146 10.2145 41.9926 10.3821C41.842 10.5497 41.6417 10.6903 41.3917 10.804C41.1445 10.9176 40.8335 10.9744 40.4585 10.9744C39.9556 10.9744 39.4997 10.8565 39.0906 10.6207C38.6843 10.3821 38.3604 10.027 38.119 9.5554C37.8803 9.08097 37.761 8.48722 37.761 7.77415C37.761 7.0554 37.8803 6.44886 38.119 5.95455C38.3604 5.45739 38.6857 5.08097 39.0948 4.82528C39.5039 4.56676 39.9599 4.4375 40.4627 4.4375C40.8462 4.4375 41.1616 4.50284 41.4087 4.63352C41.6587 4.76136 41.8576 4.91619 42.0053 5.09801C42.1531 5.27699 42.2653 5.44602 42.342 5.60511H42.4272V4.52273H43.9485V11.1747C43.9485 11.7344 43.815 12.1974 43.5479 12.5639C43.2809 12.9304 42.9158 13.2045 42.4528 13.3864C41.9897 13.5682 41.4641 13.6591 40.8761 13.6591ZM40.8889 9.7642C41.2156 9.7642 41.494 9.68466 41.7241 9.52557C41.9542 9.36648 42.1289 9.13778 42.2482 8.83949C42.3676 8.54119 42.4272 8.18324 42.4272 7.76562C42.4272 7.35369 42.3676 6.9929 42.2482 6.68324C42.1318 6.37358 41.9585 6.13352 41.7283 5.96307C41.5011 5.78977 41.2212 5.70312 40.8889 5.70312C40.5451 5.70312 40.2582 5.79261 40.0281 5.97159C39.7979 6.15057 39.6247 6.39631 39.5082 6.70881C39.3917 7.01847 39.3335 7.37074 39.3335 7.76562C39.3335 8.16619 39.3917 8.51705 39.5082 8.81818C39.6275 9.11648 39.8022 9.34943 40.0323 9.51705C40.2653 9.68182 40.5508 9.7642 40.8889 9.7642Z" fill="white"/>
<path opacity="0.5" d="M33.5838 11.196C32.9446 11.196 32.3906 11.0554 31.9219 10.7741C31.4531 10.4929 31.0895 10.0994 30.831 9.59375C30.5753 9.08807 30.4474 8.49716 30.4474 7.82102C30.4474 7.14489 30.5753 6.55256 30.831 6.04403C31.0895 5.53551 31.4531 5.14062 31.9219 4.85938C32.3906 4.57812 32.9446 4.4375 33.5838 4.4375C34.223 4.4375 34.777 4.57812 35.2457 4.85938C35.7145 5.14062 36.0767 5.53551 36.3324 6.04403C36.5909 6.55256 36.7202 7.14489 36.7202 7.82102C36.7202 8.49716 36.5909 9.08807 36.3324 9.59375C36.0767 10.0994 35.7145 10.4929 35.2457 10.7741C34.777 11.0554 34.223 11.196 33.5838 11.196ZM33.5923 9.96023C33.9389 9.96023 34.2287 9.86506 34.4617 9.67472C34.6946 9.48153 34.8679 9.22301 34.9815 8.89915C35.098 8.57528 35.1563 8.21449 35.1563 7.81676C35.1563 7.41619 35.098 7.05398 34.9815 6.73011C34.8679 6.40341 34.6946 6.14347 34.4617 5.95028C34.2287 5.7571 33.9389 5.66051 33.5923 5.66051C33.2372 5.66051 32.9418 5.7571 32.706 5.95028C32.473 6.14347 32.2983 6.40341 32.1818 6.73011C32.0682 7.05398 32.0114 7.41619 32.0114 7.81676C32.0114 8.21449 32.0682 8.57528 32.1818 8.89915C32.2983 9.22301 32.473 9.48153 32.706 9.67472C32.9418 9.86506 33.2372 9.96023 33.5923 9.96023Z" fill="white"/>
<path opacity="0.5" d="M24 11.0682V2.34091H25.581V9.7429H29.4247V11.0682H24Z" fill="white"/>
</svg>
