<svg width="77" height="19" viewBox="0 0 77 19" fill="none" xmlns="http://www.w3.org/2000/svg">
<path opacity="0.4" d="M12.1153 13.7654C11.371 14.2257 10.2202 14.9373 8.66324 15.8998C8.66324 15.8998 8.65819 16.7631 8.64795 18.4898C8.64795 18.4898 10.3406 17.4401 13.726 15.3409C14.5814 14.838 15.1272 14.3748 15.3635 13.9519C15.617 13.429 15.7345 12.4015 15.7159 10.8693C15.3147 11.9654 13.3527 13.0004 12.1153 13.7654Z" fill="white"/>
<path opacity="0.7" d="M13.0605 9.33997C13.0676 9.34429 13.0745 9.34851 13.0813 9.35263C12.7389 9.56031 12.407 9.75563 12.1153 9.93598C11.8739 10.0852 11.5898 10.2607 11.263 10.4628C9.61669 11.4805 8.65779 13.0008 8.64822 14.6082L8.64795 14.6597C8.64795 14.6597 10.3407 13.6102 13.7262 11.5112C14.5814 11.0084 15.1754 10.3505 15.4116 9.92765C15.5831 9.57407 15.6444 9.18433 15.6912 8.36928C15.7362 7.58356 15.7346 6.81262 15.6452 6.00439C15.7784 7.26325 13.9253 8.83327 13.0813 9.35263C13.075 9.34881 13.069 9.34489 13.0627 9.34097" fill="white"/>
<path d="M8.64011 2.28132C8.61379 4.54473 9.71999 6.71308 11.6977 8.3672C11.7028 8.37142 11.7077 8.37564 11.7128 8.37986C11.7398 8.40237 11.7671 8.42467 11.7944 8.44698C11.805 8.45572 11.8157 8.46456 11.8263 8.4732C11.8474 8.49028 11.8688 8.50726 11.8902 8.52424C11.9075 8.53801 11.9245 8.55187 11.942 8.56554C11.9571 8.5775 11.9727 8.58925 11.988 8.60121C12.0118 8.6197 12.0354 8.63828 12.0593 8.65667C12.0687 8.6638 12.0781 8.67074 12.0874 8.67777C12.1177 8.70078 12.148 8.72379 12.1787 8.7466C12.1807 8.7481 12.1828 8.74961 12.1848 8.75112C12.4628 8.95749 12.7556 9.15453 13.0625 9.34101C13.069 9.34493 13.0754 9.34884 13.0815 9.35256C13.9256 8.83331 15.7784 7.26328 15.645 6.00443C15.6448 6.00242 15.6446 6.00041 15.6444 5.9984C15.6308 5.87562 15.6151 5.76007 15.5977 5.65156C15.5552 5.38781 15.5015 5.16586 15.4364 4.98571C15.4134 4.92201 15.3891 4.86343 15.3632 4.81028C15.3557 4.79702 15.3482 4.78386 15.3402 4.77049C15.14 4.43702 14.7493 4.07892 14.1686 3.69632C14.0315 3.60609 13.8841 3.51446 13.7259 3.42142L10.7979 1.60593L8.67839 0.272827V0.291817L8.64795 0.272928C8.65207 0.948422 8.64795 1.61618 8.64011 2.28132V2.28132Z" fill="white"/>
<path opacity="0.4" d="M4.26736 4.99715C5.01183 4.53692 6.16257 3.82537 7.71957 2.8627C7.71957 2.8627 7.72462 1.99951 7.73486 0.272827C7.73486 0.272827 6.04212 1.32242 2.65678 3.42161C1.80144 3.92465 1.25559 4.3877 1.01935 4.81075C0.765832 5.33359 0.648445 6.36107 0.666924 7.89321C1.06814 6.79719 3.03008 5.76227 4.26736 4.99715V4.99715Z" fill="white"/>
<path opacity="0.7" d="M3.30113 9.40912C3.64359 9.20144 3.97554 9.00602 4.26721 8.82577C4.4532 8.71082 4.76162 8.52012 5.11976 8.29877C6.76597 7.28106 7.72487 5.76077 7.73444 4.15337L7.73471 4.10193C7.73471 4.10193 6.04197 5.15159 2.6565 7.25042C1.80116 7.7534 1.20718 8.411 0.971076 8.83401C0.799582 9.18758 0.738297 9.57722 0.691369 10.3924C0.646302 11.18 0.647897 11.9528 0.738031 12.7633C0.598177 11.5033 2.45576 9.92928 3.30113 9.40912Z" fill="white"/>
<path d="M3.32017 9.42061C3.31366 9.41669 3.30741 9.41278 3.30116 9.40906C2.45579 9.92922 0.598338 11.5033 0.738192 12.7632C0.796686 13.2895 0.890542 13.6857 1.0195 13.9513C1.2556 14.3741 1.80132 14.8371 2.6568 15.3402L5.58482 17.1557L7.7043 18.4888V18.4699L7.73474 18.4888C7.73421 18.4044 7.73381 18.3201 7.73354 18.2358C7.73328 18.1516 7.73315 18.0675 7.73315 17.9835C7.73288 17.4795 7.73673 16.9792 7.74258 16.4804C7.77449 13.7397 6.1461 11.1383 3.32017 9.42071V9.42061Z" fill="white"/>
<path d="M71.3451 15.4545C71.1349 15.4545 70.9403 15.4375 70.7613 15.4034C70.5852 15.3721 70.4446 15.3352 70.3395 15.2926L70.6974 14.0909C70.9219 14.1562 71.1221 14.1875 71.2983 14.1846C71.4744 14.1818 71.6292 14.1264 71.7628 14.0184C71.8991 13.9133 72.0142 13.7372 72.1079 13.49L72.24 13.1363L69.8665 6.45453H71.5028L73.0113 11.3977H73.0795L74.5923 6.45453H76.2329L73.6122 13.7926C73.49 14.1392 73.3281 14.4361 73.1264 14.6832C72.9247 14.9332 72.6775 15.1236 72.3849 15.2542C72.0951 15.3878 71.7486 15.4545 71.3451 15.4545Z" fill="white"/>
<path d="M69.1782 6.4545V7.64768H65.3088V6.4545H69.1782ZM66.2762 13V5.8366C66.2762 5.39626 66.3671 5.02978 66.5489 4.73717C66.7336 4.44455 66.9807 4.2258 67.2904 4.08092C67.6 3.93603 67.9438 3.86359 68.3216 3.86359C68.5887 3.86359 68.8259 3.88489 69.0333 3.92751C69.2407 3.97012 69.3941 4.00847 69.4935 4.04256L69.1867 5.23575C69.1213 5.21586 69.039 5.19597 68.9395 5.17609C68.8401 5.15336 68.7293 5.142 68.6071 5.142C68.3202 5.142 68.1171 5.2116 67.9978 5.3508C67.8813 5.48717 67.823 5.68319 67.823 5.93887V13H66.2762Z" fill="white"/>
<path d="M62.7341 13V6.45452H64.2767V13H62.7341ZM63.5096 5.52555C63.2653 5.52555 63.0551 5.44458 62.879 5.28265C62.7028 5.11788 62.6147 4.92043 62.6147 4.69032C62.6147 4.45736 62.7028 4.25992 62.879 4.09799C63.0551 3.93322 63.2653 3.85083 63.5096 3.85083C63.7568 3.85083 63.967 3.93322 64.1403 4.09799C64.3165 4.25992 64.4045 4.45736 64.4045 4.69032C64.4045 4.92043 64.3165 5.11788 64.1403 5.28265C63.967 5.44458 63.7568 5.52555 63.5096 5.52555Z" fill="white"/>
<path d="M61.4439 6.45453V7.64772H57.6812V6.45453H61.4439ZM58.6101 4.88635H60.1527V11.0312C60.1527 11.2386 60.184 11.3977 60.2465 11.5085C60.3118 11.6165 60.3971 11.6903 60.5022 11.7301C60.6073 11.7699 60.7238 11.7898 60.8516 11.7898C60.9482 11.7898 61.0363 11.7827 61.1158 11.7685C61.1982 11.7543 61.2607 11.7415 61.3033 11.7301L61.5633 12.9361C61.4809 12.9645 61.363 12.9957 61.2096 13.0298C61.059 13.0639 60.8743 13.0838 60.6556 13.0895C60.2692 13.1008 59.9212 13.0426 59.6116 12.9148C59.3019 12.7841 59.0562 12.5824 58.8743 12.3096C58.6954 12.0369 58.6073 11.696 58.6101 11.2869V4.88635Z" fill="white"/>
<path d="M55.0464 10.2471V6.45453H56.589V13H55.0933V11.8366H55.0251C54.8774 12.2031 54.6345 12.5028 54.2964 12.7358C53.9612 12.9687 53.5478 13.0852 53.0563 13.0852C52.6274 13.0852 52.2481 12.99 51.9185 12.7997C51.5918 12.6065 51.3362 12.3267 51.1515 11.9602C50.9668 11.5909 50.8745 11.1449 50.8745 10.6221V6.45453H52.4171V10.3835C52.4171 10.7983 52.5308 11.1278 52.758 11.3721C52.9853 11.6165 53.2836 11.7386 53.6529 11.7386C53.8802 11.7386 54.1004 11.6832 54.3134 11.5724C54.5265 11.4616 54.7012 11.2969 54.8376 11.0781C54.9768 10.8565 55.0464 10.5795 55.0464 10.2471Z" fill="white"/>
<path d="M46.4288 13.1278C45.7896 13.1278 45.2357 12.9872 44.7669 12.706C44.2982 12.4247 43.9345 12.0313 43.676 11.5256C43.4203 11.0199 43.2925 10.429 43.2925 9.75285C43.2925 9.07671 43.4203 8.48438 43.676 7.97586C43.9345 7.46733 44.2982 7.07245 44.7669 6.7912C45.2357 6.50995 45.7896 6.36932 46.4288 6.36932C47.068 6.36932 47.622 6.50995 48.0908 6.7912C48.5595 7.07245 48.9217 7.46733 49.1774 7.97586C49.4359 8.48438 49.5652 9.07671 49.5652 9.75285C49.5652 10.429 49.4359 11.0199 49.1774 11.5256C48.9217 12.0313 48.5595 12.4247 48.0908 12.706C47.622 12.9872 47.068 13.1278 46.4288 13.1278ZM46.4374 11.8921C46.784 11.8921 47.0737 11.7969 47.3067 11.6065C47.5396 11.4134 47.7129 11.1548 47.8266 10.831C47.943 10.5071 48.0013 10.1463 48.0013 9.74858C48.0013 9.34802 47.943 8.9858 47.8266 8.66194C47.7129 8.33523 47.5396 8.07529 47.3067 7.88211C47.0737 7.68893 46.784 7.59233 46.4374 7.59233C46.0823 7.59233 45.7868 7.68893 45.551 7.88211C45.318 8.07529 45.1433 8.33523 45.0269 8.66194C44.9132 8.9858 44.8564 9.34802 44.8564 9.74858C44.8564 10.1463 44.9132 10.5071 45.0269 10.831C45.1433 11.1548 45.318 11.4134 45.551 11.6065C45.7868 11.7969 46.0823 11.8921 46.4374 11.8921Z" fill="white"/>
<path d="M39.0854 13V6.45453H40.5812V7.54544H40.6494C40.7687 7.1676 40.9732 6.8764 41.263 6.67186C41.5556 6.46447 41.8894 6.36078 42.2644 6.36078C42.3497 6.36078 42.4448 6.36504 42.5499 6.37356C42.6579 6.37924 42.7474 6.38919 42.8184 6.40339V7.82243C42.7531 7.7997 42.6494 7.77981 42.5073 7.76277C42.3681 7.74288 42.2332 7.73294 42.1025 7.73294C41.8212 7.73294 41.5684 7.79402 41.344 7.91618C41.1224 8.0355 40.9477 8.20169 40.8198 8.41476C40.692 8.62783 40.6281 8.87356 40.6281 9.15197V13H39.0854Z" fill="white"/>
<path d="M31.5854 15.4546V6.45455H33.1025V7.53694H33.192C33.2715 7.37785 33.3837 7.20881 33.5286 7.02983C33.6735 6.84802 33.8695 6.69319 34.1167 6.56535C34.3639 6.43466 34.6792 6.36932 35.0627 6.36932C35.5684 6.36932 36.0244 6.49859 36.4306 6.75711C36.8397 7.01279 37.1636 7.39205 37.4022 7.89489C37.6437 8.39489 37.7644 9.00853 37.7644 9.7358C37.7644 10.4546 37.6465 11.0653 37.4107 11.5682C37.1749 12.071 36.8539 12.4546 36.4477 12.7188C36.0414 12.983 35.5812 13.1151 35.067 13.1151C34.692 13.1151 34.3809 13.0526 34.1337 12.9276C33.8866 12.8026 33.6877 12.652 33.5372 12.4759C33.3894 12.2969 33.2744 12.1278 33.192 11.9688H33.1281V15.4546H31.5854ZM33.0982 9.72728C33.0982 10.1506 33.1579 10.5213 33.2772 10.8395C33.3994 11.1577 33.5741 11.4063 33.8014 11.5852C34.0315 11.7614 34.3099 11.8494 34.6366 11.8494C34.9775 11.8494 35.263 11.7585 35.4931 11.5767C35.7232 11.3921 35.8965 11.1406 36.013 10.8224C36.1323 10.5014 36.192 10.1364 36.192 9.72728C36.192 9.32103 36.1337 8.96023 36.0173 8.64489C35.9008 8.32955 35.7275 8.08239 35.4974 7.90341C35.2673 7.72444 34.9803 7.63495 34.6366 7.63495C34.307 7.63495 34.0272 7.7216 33.7971 7.89489C33.567 8.06819 33.3923 8.31108 33.2729 8.62358C33.1565 8.93608 33.0982 9.30398 33.0982 9.72728Z" fill="white"/>
<path d="M28.6036 6.67185C28.5639 6.29969 28.3963 6.00992 28.1008 5.80253C27.8082 5.59514 27.4275 5.49145 26.9588 5.49145C26.6292 5.49145 26.3465 5.54117 26.1108 5.6406C25.875 5.74003 25.6946 5.87497 25.5696 6.04543C25.4446 6.21588 25.3806 6.41048 25.3778 6.62923C25.3778 6.81105 25.419 6.96872 25.5014 7.10225C25.5866 7.23577 25.7017 7.3494 25.8465 7.44315C25.9914 7.53406 26.1519 7.61077 26.3281 7.67327C26.5042 7.73577 26.6818 7.78832 26.8608 7.83094L27.6789 8.03548C28.0085 8.11219 28.3252 8.21588 28.6292 8.34656C28.936 8.47725 29.2102 8.64202 29.4517 8.84088C29.696 9.03974 29.8892 9.2798 30.0312 9.56105C30.1733 9.8423 30.2443 10.1718 30.2443 10.5497C30.2443 11.0611 30.1136 11.5113 29.8522 11.9005C29.5909 12.2869 29.213 12.5895 28.7187 12.8082C28.2272 13.0241 27.6321 13.1321 26.9332 13.1321C26.2542 13.1321 25.6647 13.027 25.1647 12.8167C24.6676 12.6065 24.2784 12.2997 23.9971 11.8963C23.7187 11.4929 23.5681 11.0014 23.5454 10.4218H25.1008C25.1235 10.7258 25.2173 10.9787 25.3821 11.1804C25.5468 11.3821 25.7613 11.5326 26.0255 11.6321C26.2926 11.7315 26.5909 11.7812 26.9204 11.7812C27.2642 11.7812 27.5653 11.7301 27.8238 11.6278C28.0852 11.5227 28.2897 11.3778 28.4375 11.1932C28.5852 11.0057 28.6605 10.7869 28.6633 10.5369C28.6605 10.3096 28.5937 10.1221 28.463 9.9744C28.3323 9.82384 28.1491 9.69884 27.9133 9.5994C27.6804 9.49713 27.4076 9.40622 27.0951 9.32668L26.1022 9.071C25.3835 8.88634 24.8153 8.60651 24.3977 8.23151C23.9829 7.85367 23.7755 7.35224 23.7755 6.72724C23.7755 6.21304 23.9147 5.76276 24.1931 5.37639C24.4744 4.99003 24.8565 4.69031 25.3394 4.47724C25.8224 4.26134 26.3693 4.15338 26.9801 4.15338C27.5994 4.15338 28.142 4.26134 28.6079 4.47724C29.0767 4.69031 29.4446 4.98719 29.7116 5.36787C29.9786 5.74571 30.1164 6.18037 30.125 6.67185H28.6036Z" fill="white"/>
</svg>
